<svg id="Layer_1" data-name="Layer 1" xmlns="http://www.w3.org/2000/svg" viewBox="0 0 476.87 476.87"><defs><style>.cls-1{fill:#518bc9;}.cls-2{fill:#fff;}</style></defs><polygon id="polygon2989" class="cls-1" points="404.81 95.9 374.5 435.5 238.23 473.27 102.34 435.55 72.06 95.9 404.81 95.9"/><path id="path2999" class="cls-1" d="M150.37,3.6h49.25V24.19H171v20.6h28.65v20.6H150.37Z"/><path id="path3001" class="cls-1" d="M209.47,3.6h49.26V21.51H230.07v3.58h28.66V66.28H209.47V47.48h28.66V43.9H209.47Z"/><path id="path3003" class="cls-1" d="M268.58,3.6h49.25V21.51H289.17v3.58h28.66V66.28H268.58V47.48h28.65V43.9H268.58Z"/><polygon class="cls-2" points="238.44 165.33 238.29 165.33 133.98 165.33 137.77 206.99 238.29 206.99 238.44 206.99 296.99 206.99 293.2 249.64 238.44 249.64 238.29 249.64 141.48 249.64 145.22 291.3 238.29 291.3 238.44 291.3 289.59 291.3 284.75 345.32 238.29 357.87 238.29 357.87 238.25 357.88 191.86 345.35 188.9 312.13 166.35 312.13 147.08 312.13 152.91 377.54 238.25 401.22 238.44 401.17 238.44 401.16 323.69 377.54 324.32 370.5 334.11 260.83 335.12 249.64 342.64 165.33 238.44 165.33"/></svg>