<svg id="Layer_1" data-name="Layer 1" xmlns="http://www.w3.org/2000/svg" viewBox="0 0 476.87 476.87"><defs><style>.cls-1{fill:#ef4924;}.cls-2{fill:#fff;}</style></defs><path class="cls-1" d="M104.13,3.6h21V24.3h19.16V3.6h21V66.28h-21v-21H125.08v21h-21V3.6Z"/><path class="cls-1" d="M192.75,24.39H174.3V3.6h57.85V24.39H213.7V66.28H192.75V24.39Z"/><path class="cls-1" d="M241.33,3.6h21.85l13.44,22L290,3.6H311.9V66.28H291V35.21L276.62,57.5h-.36L261.83,35.21V66.28h-20.5Z"/><path class="cls-1" d="M322.32,3.6h21v42h29.47V66.28H322.32Z"/><polygon class="cls-1" points="102.41 435.57 72.14 96.08 404.73 96.08 374.43 435.51 238.23 473.27 102.41 435.57"/><polygon class="cls-2" points="238.44 165.47 238.29 165.47 134.03 165.47 135.03 176.64 145.26 291.38 238.29 291.38 238.44 291.38 289.56 291.38 284.73 345.38 238.29 357.92 238.29 357.92 238.25 357.93 191.88 345.41 188.92 312.2 166.38 312.2 147.12 312.2 152.95 377.58 238.25 401.26 238.44 401.2 238.44 401.2 323.65 377.58 324.28 370.55 334.06 260.93 335.08 249.75 323.86 249.75 238.44 249.75 238.29 249.75 183.34 249.75 179.53 207.11 238.29 207.11 238.44 207.11 338.73 207.11 338.87 207.11 339.7 197.75 341.6 176.64 342.6 165.47 238.44 165.47"/></svg>