<svg id="Layer_1" data-name="Layer 1" xmlns="http://www.w3.org/2000/svg" viewBox="0 0 476.87 476.87"><defs><style>.cls-1{fill:#efd31a;}.cls-2{fill:#fff;}</style></defs><rect class="cls-1" width="476.87" height="476.87"/><path class="cls-2" d="M320.34,372.56c9.6,15.68,22.1,27.21,44.2,27.21,18.57,0,30.43-9.28,30.43-22.1,0-15.37-12.18-20.81-32.62-29.75l-11.2-4.81c-32.34-13.77-53.82-31-53.82-67.52,0-33.6,25.6-59.19,65.62-59.19,28.49,0,49,9.92,63.74,35.88l-34.9,22.41c-7.68-13.78-16-19.21-28.84-19.21-13.12,0-21.44,8.33-21.44,19.21,0,13.44,8.33,18.88,27.55,27.21l11.2,4.8c38.08,16.32,59.58,33,59.58,70.39,0,40.35-31.7,62.45-74.26,62.45-41.62,0-68.5-19.83-81.66-45.82ZM162,376.44c7,12.49,13.44,23.05,28.84,23.05,14.72,0,24-5.76,24-28.16V219H259.7v153c0,46.4-27.21,67.52-66.91,67.52-35.88,0-56.66-18.57-67.23-40.93Z"/></svg>