<svg id="Layer_1" data-name="Layer 1" xmlns="http://www.w3.org/2000/svg" viewBox="0 0 476.87 476.87"><defs><style>.cls-1{fill:#27beb6;}</style></defs><path class="cls-1" d="M392.09,163.61h0q-7.62-2.61-15.35-4.83,1.27-5.22,2.37-10.47c11.62-56.41,4-101.86-21.93-116.81-24.87-14.35-65.56.61-106.65,36.37q-6.08,5.3-11.87,10.89-3.89-3.72-7.9-7.3c-43.07-38.23-86.23-54.34-112.15-39.34C93.76,46.51,86.39,89.23,96.86,142.69q1.56,7.94,3.52,15.79c-6.11,1.74-12,3.58-17.65,5.55C32.24,181.63,0,209.22,0,237.83,0,267.39,34.61,297,87.2,315c4.27,1.46,8.56,2.8,12.9,4q-2.11,8.46-3.75,17c-10,52.53-2.18,94.24,22.6,108.54,25.6,14.76,68.57-.41,110.42-37q4.95-4.33,9.95-9.17,6.27,6.06,12.89,11.76c40.53,34.88,80.55,49,105.32,34.62,25.58-14.8,33.89-59.61,23.1-114.13q-1.25-6.24-2.86-12.74c3-.89,6-1.82,8.87-2.77,54.67-18.11,90.23-47.4,90.23-77.35C476.87,209.12,443.59,181.34,392.09,163.61ZM263.91,83.23C299.11,52.59,332,40.5,347,49.14h0c16,9.21,22.18,46.35,12.15,95.06q-1,4.76-2.15,9.48a487.19,487.19,0,0,0-63.76-10.08,480,480,0,0,0-40.31-50.31Q258.29,88.13,263.91,83.23Zm-123.11,179q6.48,12.5,13.52,24.67,7.2,12.42,15,24.49a435.08,435.08,0,0,1-44-7.06C129.56,290.78,134.75,276.65,140.8,262.28Zm0-47.91c-5.93-14.07-11-27.91-15.15-41.27,13.6-3,28.11-5.53,43.23-7.42q-7.59,11.83-14.62,24T140.78,214.37Zm10.83,23.95q9.42-19.59,20.28-38.44h0q10.86-18.82,23.13-36.81c14.18-1.07,28.72-1.63,43.42-1.63s29.32.56,43.5,1.65q12.13,17.92,23,36.68T325.48,238Q315.93,257.7,305,276.64h0q-10.83,18.81-22.87,36.91c-14.15,1-28.77,1.53-43.67,1.53s-29.28-.46-43.18-1.36q-12.34-18-23.3-37T151.61,238.32Zm171,48.49q7.2-12.48,13.83-25.26h0a431.73,431.73,0,0,1,16,41.95A432.29,432.29,0,0,1,308,311.08q7.56-12,14.64-24.27Zm13.64-72.43q-6.61-12.54-13.72-24.81h0q-7-12.09-14.5-23.85c15.22,1.92,29.79,4.47,43.48,7.6A435,435,0,0,1,336.27,214.38Zm-97.6-106.52a437.25,437.25,0,0,1,28.06,33.88q-28.17-1.34-56.36,0C219.63,129.51,229.12,118.16,238.67,107.86ZM128.82,49.75c16-9.24,51.23,3.93,88.41,37,2.38,2.11,4.76,4.32,7.15,6.6a490.11,490.11,0,0,0-40.62,50.27,498.87,498.87,0,0,0-63.63,9.89q-1.83-7.29-3.28-14.69h0C107.89,93,113.84,58.42,128.82,49.75ZM105.56,299.41q-5.93-1.7-11.77-3.68a172.6,172.6,0,0,1-55.62-29.55,42.1,42.1,0,0,1-17.8-28.35c0-17.36,25.89-39.51,69.07-54.56q8.13-2.82,16.41-5.17a489.17,489.17,0,0,0,23.24,60.23A496.35,496.35,0,0,0,105.56,299.41ZM216,392.27a172.54,172.54,0,0,1-53.38,33.42h0A42.13,42.13,0,0,1,129.13,427c-15-8.67-21.29-42.17-12.76-87.09q1.51-8,3.48-15.83a478.51,478.51,0,0,0,64.26,9.3,496.84,496.84,0,0,0,40.94,50.58Q220.61,388.2,216,392.27Zm23.27-23c-9.66-10.42-19.29-21.95-28.69-34.34q13.69.54,27.9.54,14.58,0,28.78-.64a433.66,433.66,0,0,1-28,34.44Zm123.71,28.34a42.1,42.1,0,0,1-15.62,29.6c-15,8.7-47.17-2.61-81.82-32.43q-6-5.13-12-10.93a478.33,478.33,0,0,0,40-50.76,475.67,475.67,0,0,0,64.58-9.95q1.45,5.88,2.58,11.53h0a172.61,172.61,0,0,1,2.3,62.94Zm17.29-101.75h0c-2.61.87-5.28,1.7-8,2.51a478.54,478.54,0,0,0-24.15-60.42,477,477,0,0,0,23.21-59.53q7.32,2.13,14.18,4.48c44.13,15.19,71,37.65,71,55,0,18.44-29.07,42.37-76.27,58Z"/><path class="cls-1" d="M238.44,195.65a42.59,42.59,0,1,1-42.59,42.59h0a42.59,42.59,0,0,1,42.59-42.59h0"/></svg>