<svg id="Layer_1" data-name="Layer 1" xmlns="http://www.w3.org/2000/svg" viewBox="0 0 170.4 90"><defs><style>.cls-1{fill:#a1cd49;}.cls-2{fill:#518bc9;}.cls-3{fill:#f4ae1a;}</style></defs><path class="cls-1" d="M72.09,28.55H63.28v-15a2.36,2.36,0,0,0-4.72,0v15H49.75a2.37,2.37,0,0,0,0,4.73h8.81V74.77a2.36,2.36,0,0,0,4.72,0V33.28h8.81a2.37,2.37,0,0,0,0-4.73Z"/><path class="cls-2" d="M153,42.82l-.09-.14h0l-1-1.41-.21-.29h0L129.09,10a2.36,2.36,0,1,0-3.82,2.78L148.7,45h0L125.27,77.25A2.36,2.36,0,0,0,129.09,80l22.53-31h0l.88-1.22.36-.48h0l.09-.14A3.69,3.69,0,0,0,153,42.82Z"/><path class="cls-2" d="M45.32,10.29a2.36,2.36,0,0,0-4-.32L18.78,41h0l-.25.34-1,1.36h0l-.1.14a3.72,3.72,0,0,0,0,4.36l.1.14h0l.37.5.87,1.2h0L41.31,80a2.36,2.36,0,0,0,3.82-2.78L21.7,45h0L45.13,12.75A2.33,2.33,0,0,0,45.32,10.29Z"/><path class="cls-3" d="M119,18.25a2.35,2.35,0,0,0-1.91,1L101.26,41h0l-1.2,1.65,0,0h0L74.91,77.25A2.36,2.36,0,0,0,78.73,80L102.94,46.7h0l18-24.7A2.36,2.36,0,0,0,119,18.25Z"/></svg>