<svg id="Layer_1" data-name="Layer 1" xmlns="http://www.w3.org/2000/svg" viewBox="0 0 287.65 90"><defs><style>.cls-1{fill:#a1cd49;}.cls-2{fill:#518bc9;}.cls-3{fill:#f4ae1a;}</style></defs><path class="cls-1" d="M180.87,28.55a2.37,2.37,0,0,0-2.36,2.37V74.78a2.36,2.36,0,1,0,4.72,0V30.92A2.37,2.37,0,0,0,180.87,28.55Z"/><path class="cls-1" d="M163,28.55a2.37,2.37,0,0,0-2.36,2.37v7.52a24.27,24.27,0,1,0,0,28.73v7.61a2.36,2.36,0,0,0,4.72,0V30.92A2.37,2.37,0,0,0,163,28.55ZM141.08,72.34h0a19.55,19.55,0,1,1,13.82-5.73A19.56,19.56,0,0,1,141.07,72.34Z"/><path class="cls-1" d="M69.84,28.55H61v-15a2.37,2.37,0,0,0-4.73,0v15H47.5a2.37,2.37,0,0,0,0,4.73h8.81V74.77a2.37,2.37,0,0,0,4.73,0V33.28h8.8a2.37,2.37,0,1,0,0-4.73Z"/><circle class="cls-1" cx="180.87" cy="15.71" r="4.53"/><path class="cls-2" d="M272.45,42.82l-.09-.14h0l-1-1.41-.21-.29h0L248.59,10a2.36,2.36,0,1,0-3.82,2.78L268.2,45h0L244.77,77.25A2.36,2.36,0,0,0,248.59,80l22.53-31h0L272,47.8l.36-.48h0l.09-.14A3.69,3.69,0,0,0,272.45,42.82Z"/><path class="cls-2" d="M43.08,10.29a2.37,2.37,0,0,0-4-.32L16.53,41h0l-.24.34-1,1.36h0l-.1.14a3.69,3.69,0,0,0,0,4.36l.1.14h0l.36.5.87,1.2h0L39.06,80a2.36,2.36,0,1,0,3.82-2.78L19.45,45h0L42.88,12.75A2.35,2.35,0,0,0,43.08,10.29Z"/><path class="cls-3" d="M238.48,18.25a2.36,2.36,0,0,0-1.91,1L220.76,41h0l-1.2,1.65,0,0h0L194.41,77.25A2.36,2.36,0,0,0,198.23,80L222.44,46.7h0L240.39,22a2.36,2.36,0,0,0-1.91-3.75Z"/><path class="cls-1" d="M97.42,51.44l13.82-19.16a2.37,2.37,0,0,0-1.92-3.74,2.37,2.37,0,0,0-1.91,1L94.51,47.4,81.61,29.52a2.38,2.38,0,0,0-1.92-1,2.36,2.36,0,0,0-1.91,3.74L91.59,51.44l-15.83,22a2.36,2.36,0,0,0,1.92,3.74,2.37,2.37,0,0,0,1.91-1L94.51,55.48l14.91,20.68a2.38,2.38,0,0,0,1.92,1,2.35,2.35,0,0,0,2.1-1.29,2.31,2.31,0,0,0-.19-2.45Z"/></svg>